<svg xmlns="http://www.w3.org/2000/svg" viewBox="0 0 128 128"><defs><style>.cls-1{fill:none;stroke:#41cd0a;stroke-linecap:round;stroke-linejoin:round;stroke-width:5px;}.cls-2{fill:#fff;}</style></defs><g id="Layer_1" data-name="Layer 1"><circle cx="64" cy="52.55" r="13.17"/><path class="cls-1" d="M64,26.55a26,26,0,0,0-26,26c0,22.17,26,48.9,26,48.9s26-26.73,26-48.9A26,26,0,0,0,64,26.55Z"/><path class="cls-2" d="M64,57.66a2.22,2.22,0,0,1,0,4.44,2.22,2.22,0,1,1,0-4.44Z"/><path class="cls-2" d="M62.79,43h2.42a1.15,1.15,0,0,1,1.14,1.22l-.61,10.31a1.15,1.15,0,0,1-1.15,1.08H63.43a1.14,1.14,0,0,1-1.14-1.08l-.64-10.31A1.15,1.15,0,0,1,62.79,43Z"/></g></svg>