<svg xmlns="http://www.w3.org/2000/svg" viewBox="0 0 128 128"><defs><style>.cls-1{fill:none;stroke:#41cd0a;stroke-linecap:round;stroke-linejoin:round;stroke-width:5.16px;}.cls-2{fill:#41cd0a;}.cls-3{fill:#fff;}</style></defs><g id="Layer_1" data-name="Layer 1"><path class="cls-1" d="M41.74,89.68c-4.28-4.94-5.3-8.12-5.83-15.58"/><path d="M87.08,50.87,87,50.79a30.41,30.41,0,0,1-8.94-21.54h0a1.5,1.5,0,0,0-1.5-1.5H51.41a1.5,1.5,0,0,0-1.5,1.5v0A30.4,30.4,0,0,1,41,50.79l-.08.08a32.64,32.64,0,0,0-8.27,32.28A4.9,4.9,0,0,0,39.5,86.1h0A4.93,4.93,0,0,0,42,80.31a22.83,22.83,0,0,1,5.8-22.5A24,24,0,0,1,49.91,56a22.85,22.85,0,0,1,28.15,0,24,24,0,0,1,2.07,1.83,22.71,22.71,0,0,1,5.65,23,4.92,4.92,0,1,0,9.39,2.92A32.48,32.48,0,0,0,87.08,50.87ZM64.67,43H59.16V37.89h5.51Zm0-6.8H59.16V33.35h5.51ZM68.84,43H66.09V39.63h2.75Zm0-5.15H66.09V33.35h2.75Z"/><circle class="cls-2" cx="90.19" cy="45.93" r="11.13"/><path class="cls-3" d="M90.21,50.1A1.91,1.91,0,1,1,88.29,52,1.87,1.87,0,0,1,90.21,50.1Z"/><path class="cls-3" d="M89.16,38h2.07a1,1,0,0,1,1,1l-.53,8.84a1,1,0,0,1-1,.92h-1a1,1,0,0,1-1-.92L88.18,39A1,1,0,0,1,89.16,38Z"/></g></svg>